Coordinates
version=1
nRows=15
nColumns=34
inDegrees=yes

Units are S.I. units (second, meters, Newtons, ...)
If the header above contains a line with 'inDegrees', this indicates whether rotational values are in degrees (yes) or radians (no).

endheader
time	pelvis_tilt	pelvis_list	pelvis_rotation	pelvis_tx	pelvis_ty	pelvis_tz	hip_flexion_r	hip_adduction_r	hip_rotation_r	knee_angle_r	ankle_angle_r	subtalar_angle_r	mtp_angle_r	hip_flexion_l	hip_adduction_l	hip_rotation_l	knee_angle_l	ankle_angle_l	subtalar_angle_l	mtp_angle_l	lumbar_extension	lumbar_bending	lumbar_rotation	arm_flex_r	arm_add_r	arm_rot_r	elbow_flex_r	pro_sup_r	arm_flex_l	arm_add_l	arm_rot_l	elbow_flex_l	pro_sup_l
     12.42500000	      6.47121185	      4.86923484	   -177.85151360	     -0.00506102	      1.13101613	      0.14390304	    -13.31208628	      7.33812866	      6.93045700	     37.23444267	    -17.08888748	    -23.78105987	      0.00000000	     36.60407443	     -3.19838868	     -7.44423892	     15.68248931	    -14.90568657	      4.90328779	      0.00000000	     -7.53562510	      8.30099811	     13.30485382	      8.04650970	    -31.18009164	     19.35020460	    110.64647113	     96.41807735	    -38.98508340	    -14.76092304	    -13.37546970	     92.23879424	     87.80635099
     12.43333330	      5.98668517	      5.11543842	   -178.10762436	     -0.00574728	      1.12892524	      0.14389053	    -12.74925241	      7.66815159	      7.31342647	     41.98385049	    -16.38497198	    -25.45477689	      0.00000000	     35.61825505	     -3.34493140	     -7.71524237	     13.84322102	    -14.74933502	      7.00944943	      0.00000000	     -8.09789149	      8.34930560	     13.33483629	      8.14602908	    -31.53008912	     20.20699504	    110.97211126	     96.15476623	    -38.30624379	    -14.34477015	    -14.16899974	     92.86914220	     87.97213308
     12.44166670	      5.52054162	      5.24328417	   -178.32420288	     -0.00605270	      1.12586196	      0.14393907	    -11.94832932	      7.85057171	      7.36025937	     47.05281194	    -15.47504070	    -26.48417116	      0.00000000	     34.72438945	     -3.34838942	     -7.85758120	     12.61350084	    -14.66555911	      8.44931103	      0.00000000	     -8.67976797	      8.29336865	     13.28315902	      8.14154126	    -31.78900294	     20.79731313	    111.17856782	     95.88484297	    -37.35535413	    -14.10317394	    -14.77975742	     93.38508880	     88.11184227
     12.45000000	      5.06114897	      5.24352432	   -178.44354985	     -0.00574374	      1.12190755	      0.14384761	    -10.92835779	      7.88854514	      7.15766251	     52.39714754	    -14.68124062	    -27.08903558	      0.00000000	     33.89490677	     -3.22131262	     -8.05752815	     11.84519265	    -14.60545961	      9.54266397	      0.00000000	     -9.27989093	      8.06890524	     13.10370801	      7.96867792	    -32.00931638	     21.18321369	    111.29056085	     95.58975226	    -36.10340793	    -13.99863071	    -15.29098001	     93.87174483	     88.24343886
     12.45833330	      4.64678329	      5.15742827	   -178.45943991	     -0.00487966	      1.11766373	      0.14350929	     -9.75250129	      7.84034410	      6.75741298	     57.82462242	    -14.00921729	    -27.37138424	      0.00000000	     33.16014062	     -3.01040994	     -8.22940597	     11.53306526	    -14.61057944	     10.19696335	      0.00000000	     -9.87924554	      7.69955579	     12.81101903	      7.57934676	    -32.11306121	     21.35159725	    111.21671275	     95.29250625	    -34.61264044	    -14.04616038	    -15.67693195	     94.30480404	     88.36204562
     12.46666670	      4.31884727	      4.98357376	   -178.45744038	     -0.00340726	      1.11284906	      0.14275083	     -8.33567356	      7.66920660	      6.23198897	     63.31205443	    -13.39600332	    -27.32843322	      0.00000000	     32.53002117	     -2.76287067	     -8.39116018	     11.83744862	    -14.53600757	     10.33225058	      0.00000000	    -10.46875799	      7.14130081	     12.43258418	      7.05341807	    -32.06130614	     21.26715822	    110.97503116	     94.94451713	    -32.82757269	    -14.27946003	    -15.94677890	     94.67855549	     88.49393274
     12.47500000	      4.17760401	      4.78618632	   -178.32374590	     -0.00179823	      1.10807976	      0.14184056	     -6.62400725	      7.46094518	      5.53858157	     68.69712537	    -12.49513988	    -26.68704662	      0.00000000	     32.13487112	     -2.44093411	     -8.32567507	     12.70959118	    -14.35369674	     10.08419779	      0.00000000	    -10.88197716	      6.55224193	     12.32053518	      5.63427665	    -31.71031135	     19.89659042	    110.83293740	     93.75284273	    -30.31809447	    -15.04201211	    -15.36626026	     94.66927259	     88.98556284
     12.48333330	      3.92641832	      4.32219797	   -178.19579977	     -0.00051324	      1.10249040	      0.14088697	     -5.03281256	      6.93226869	      4.81859365	     73.93080247	    -12.64250901	    -26.90412048	      0.00000000	     31.54980217	     -1.92373251	     -8.40063065	     14.03928070	    -13.90591824	      9.43912313	      0.00000000	    -11.49695235	      5.58698680	     11.61639306	      4.91473019	    -31.39843507	     19.95502336	    110.25539414	     93.56311016	    -28.16196970	    -15.67391995	    -15.47879975	     94.69954131	     89.04503066
     12.49166670	      3.63825931	      4.00083013	   -177.96667563	      0.00068242	      1.09735451	      0.13985465	     -3.44529621	      6.54554962	      4.06916798	     78.84980906	    -12.71440746	    -27.03317839	      0.00000000	     31.00768629	     -1.57282367	     -8.40423087	     16.01061149	    -13.06425112	      8.81699146	      0.00000000	    -12.24969074	      4.78744821	     10.52448864	      4.46333603	    -30.95900661	     20.09725790	    109.70831392	     93.51004909	    -25.97321642	    -16.24544750	    -15.65126651	     94.82658971	     89.04752067
     12.50000000	      3.80085342	      3.33687993	   -177.84297855	      0.00077614	      1.09143133	      0.13879608	     -1.40425397	      5.65024007	      3.37356428	     83.54449360	    -12.36749400	    -26.90326556	      0.00000000	     30.69256989	     -0.82343579	     -8.32590849	     18.05711167	    -12.02565861	      7.05490314	      0.00000000	    -12.22678869	      3.48122251	      9.63606633	      2.97006320	    -30.04631453	     19.56729788	    108.13115258	     93.26344385	    -23.62659936	    -17.36811906	    -15.10045474	     94.22815807	     89.08876227
     12.50833330	      3.93292108	      2.84529337	   -177.63587486	      0.00096732	      1.08523646	      0.13770996	      0.64246999	      5.05286818	      2.82220594	     87.93302749	    -12.27588884	    -27.10723121	      0.00000000	     30.47460807	     -0.22488150	     -8.08204186	     20.71300436	    -10.17110287	      5.48594185	      0.00000000	    -12.42690259	      2.40069451	      9.08424868	      1.05829136	    -29.09611037	     18.22748972	    107.09383157	     92.96910452	    -20.83715434	    -18.64155439	    -13.82004442	     93.43666644	     89.06136742
     12.51666670	      3.60495619	      2.29949402	   -177.32290263	      0.00116309	      1.08047881	      0.13667716	      2.22584715	      4.31663461	      2.17257648	     91.98936513	    -12.24869608	    -27.46707235	      0.00000000	     29.68143826	      0.37005645	     -8.21576123	     23.56553457	     -7.53289783	      4.10568316	      0.00000000	    -13.42928225	      1.32846854	      7.72077358	      0.18279800	    -28.55004197	     18.48423100	    106.31868099	     92.97729522	    -18.79448759	    -19.44725850	    -14.11957023	     93.37398008	     89.02387812
     12.52500000	      3.74741702	      1.65796114	   -176.97238653	      0.00082332	      1.07438938	      0.13596931	      4.34821547	      3.40782839	      1.65406290	     95.79122195	    -11.61797691	    -27.39300234	      0.00000000	     29.29372439	      1.24017916	     -7.90371169	     26.23006214	     -4.93019417	      1.78823814	      0.00000000	    -13.51705915	      0.06315673	      7.54932885	     -2.78321077	    -27.33974037	     16.22709158	    104.44182484	     93.18041011	    -15.49527009	    -21.20911166	    -11.62004675	     91.98965424	     88.68022661
     12.53333330	      3.21322078	      0.98202086	   -176.54203989	      0.00130232	      1.06971342	      0.13537762	      5.77019059	      2.47357784	      1.18994175	     99.18668192	    -11.24233813	    -27.53123871	      0.00000000	     28.13134267	      2.08129583	     -7.85456881	     28.79307282	     -2.02049292	     -0.21131463	      0.00000000	    -14.68599303	     -1.31376990	      5.99292808	     -3.72129419	    -26.15536209	     15.93900242	    102.08026106	     93.26042691	    -13.34064394	    -22.13709488	    -11.48068277	     91.92606111	     88.59936108
     12.54166670	      2.85465158	      0.37588721	   -176.16929669	      0.00259716	      1.06516229	      0.13519126	      7.52000605	      1.53783570	      0.88808981	    102.35336472	    -10.51095864	    -27.10912874	      0.00000000	     27.13670383	      2.91176985	     -7.57045383	     31.25630876	      0.79562716	     -2.39715121	      0.00000000	    -15.68681613	     -2.57595618	      4.51578438	     -4.37663034	    -25.06233467	     15.48637234	     99.17816243	     93.36911129	    -11.02060882	    -23.24051831	    -10.86235210	     91.69722705	     88.53752255
